<!--?xml version="1.0" encoding="UTF-8" standalone="no"?-->

<svg version="1.1" xmlns="http://www.w3.org/2000/svg" xmlns:xlink="http://www.w3.org/1999/xlink" preserveAspectRatio="xMidYMid meet" viewBox="187.21734619140562 25.03522949218676 331.200000000001 564.0000000000016" width="327.2" height="560" style=""><defs><path d="M349.82 209.24L343.42 209.24L340.22 217.24L340.22 225.24L349.82 230.84L357.82 225.24L369.02 225.24L371.42 217.24L369.02 197.24L361.02 183.64L333.02 180.44L343.42 173.24L355.42 173.24L377.02 180.44L385.02 197.24L389.82 210.84L397.82 210.84L397.82 221.24L397.82 230.84L401.82 238.04L410.62 254.04L417.82 256.44L434.13 252.44L445.02 252.44L456.22 263.64L470.62 269.24L487.42 278.84L481.82 294.04L473.02 317.24L459.42 341.24L449.02 352.44L434.13 371.64L422.62 384.44L413.02 398.04L408.22 404.44L397.82 412.44L381.02 414.84L373.82 414.84L369.02 404.44L365.02 388.44L361.02 376.44L355.42 368.44L347.42 358.84L337.02 355.64L329.02 361.24L315.42 371.64L305.02 376.44L302.62 384.44L299.42 395.64L299.42 412.44L295.42 422.84L295.42 436.44L295.42 448.44L299.42 467.64L302.62 486.84L302.62 498.04L302.62 516.44L295.42 533.24L295.42 546.04L289.82 563.64L284.22 575.64L271.42 586.04" id="a269G47ut6" class="sapFLGiu_0"></path><path d="M197.82 234.84L197.82 242.04L194.62 252.44L194.62 263.64L197.82 272.44L205.82 272.44L213.02 270.04L220.22 263.64L220.22 254.04L213.02 245.24L202.62 231.64L197.82 224.44L194.62 211.64L190.62 198.84L188.22 189.24L188.22 178.84L190.62 162.84L190.62 145.24L194.62 129.24L194.62 116.44L202.62 108.44L213.02 108.44L232.22 104.44L241.02 104.44L253.82 108.44L253.82 116.44L253.82 129.24L253.82 145.24L256.22 154.84L264.22 162.84L271.42 167.64L277.02 173.24L286.62 182.84L286.62 193.24L289.02 214.04L289.02 229.24L289.02 242.04L289.02 254.04L282.62 263.64L280.22 275.64L273.82 290.04L271.42 298.04L266.62 305.24L261.02 309.24L253.82 309.24L245.36 300L237.82 300L232.22 293.24L220.22 275.64L213.02 280.44L213.02 290.04L216.22 302.84L225.02 309.24L232.22 316.44L234.62 323.64L232.22 334.84L234.62 351.64L245.36 367.64L253.82 374.04L264.22 384.44L280.22 388.44L293.82 379.64L306.62 374.04L320 363.64L334.62 351.64L347.42 341.24L350.62 330.04L345.02 311.64L339.42 290.04L325.82 270.04L320 249.24L312.22 231.64L306.62 218.84L306.62 204.44L306.62 196.44L325.82 189.24" id="d62Mhf8kil" class="sapFLGiu_1"></path><path d="M515.42 288.44L505.82 278.04L497.02 271.64L481.82 268.44L467.42 268.44L456.22 259.64L464.22 251.64L467.42 241.24L470.62 225.24L473.82 213.24L467.42 203.64L456.22 203.64L456.22 194.84L460.22 178.84L464.22 165.24L467.42 154.04L464.22 145.24L456.22 138.04L452.22 127.64L447.42 114.84L449.82 104.44L447.42 93.24L434.13 86.84L421.02 77.24L407.42 67.64L392.22 56.44L379.42 44.44L366.62 37.24L354.62 29.24L331.42 26.04L308.22 26.04L292.22 29.24L271.42 35.64L250.62 44.44L233.02 56.44L220.22 67.64L203.42 86.84L195.42 100.44L195.42 114.84" id="a1Dum4Wo07" class="sapFLGiu_2"></path></defs><g><g><g><use xlink:href="#a269G47ut6" opacity="1" fill-opacity="0" stroke="#000000" stroke-width="1" stroke-opacity="1"></use></g></g><g><g><use xlink:href="#d62Mhf8kil" opacity="1" fill-opacity="0" stroke="#000000" stroke-width="1" stroke-opacity="1"></use></g></g><g><g><use xlink:href="#a1Dum4Wo07" opacity="1" fill-opacity="0" stroke="#000000" stroke-width="1" stroke-opacity="1"></use></g></g></g><style data-made-with="vivus-instant">.sapFLGiu_0{stroke-dasharray:870 872;stroke-dashoffset:871;animation:sapFLGiu_draw 2000ms linear 0ms forwards;}.sapFLGiu_1{stroke-dasharray:972 974;stroke-dashoffset:973;animation:sapFLGiu_draw 2000ms linear 500ms forwards;}.sapFLGiu_2{stroke-dasharray:576 578;stroke-dashoffset:577;animation:sapFLGiu_draw 2000ms linear 1000ms forwards;}@keyframes sapFLGiu_draw{100%{stroke-dashoffset:0;}}@keyframes sapFLGiu_fade{0%{stroke-opacity:1;}94.44444444444444%{stroke-opacity:1;}100%{stroke-opacity:0;}}</style></svg>