<!--?xml version="1.0" encoding="UTF-8" standalone="no"?-->

<svg version="1.1" xmlns="http://www.w3.org/2000/svg" xmlns:xlink="http://www.w3.org/1999/xlink" preserveAspectRatio="xMidYMid meet" viewBox="0 0 640 640" width="640" height="640" style=""><defs><path d="M567.12 273.46L575.72 276.54L578.88 274.06L582.88 271.86L586.28 267.06L590.08 261.94L590.68 253.96L590.68 244.16L594.28 236.86L597.08 228.36L599.08 219.84L596.28 217.84L589.48 217.84L582.28 217.84L575.72 213.04L576.48 206.24L578.88 199.84L582.28 195.64L583.88 188.94L586.28 178.96L589.48 170.76L587.88 161.96L583.48 154.56L578.88 148.76L575.72 140.48L573.32 134.14L571.72 129.28L569.72 125.68L568.52 122.68L568.52 119.34L567.12 116.94L567.12 114.88L568.52 111.74L570.32 109.28L570.32 103.88L568.52 97.08L564.32 93.88L556.32 90.88L547.12 85.48L537.72 81.48L531.52 77.28L525.32 71.68L520.52 67.28L515.52 61.08L509.92 55.28L496.66 44.88L482.46 35.68L464.26 28.08L445.86 23.08L435.26 20.48L417.88 20.48L399.86 20.48L377.26 25.48L362.46 29.68L341.86 38.28L330.62 43.94L314.14 56.44L299.4 69.2L288.4 82.44L282 94.78L277.4 107.34L276.6 117.94L278.8 121.94L283.42 119.34L294.62 112.54L305.28 112.54L317.02 111.74L329.02 111.14L337.02 111.14L343.22 112.54L346.42 116.94L346.42 125.14L345.48 134.14L345.48 144.74L345.48 151.94L347.02 156.54L350.22 162.74L355.68 168.74L363.62 176.74L369.62 182.66L376.22 188.94L380.42 193.74L380.42 198.46L381.68 211.26L382.22 221.66L383.42 235.06L385.42 248.26L383.42 260.26L380.42 272.68L373.88 291.48L367.62 305.48L363.62 317.68L361.62 326.08L356.62 335.28L353.02 332.88L346.42 329.08L339.42 325.48L334.37 323.68L329.82 322.46L321.62 319.08L315.62 314.28L311.42 310.28L308.42 305.88L305.28 300.68L303.42 295.68L301.42 295.08L297.42 299.08L295.02 305.48L295.42 312.28L297.42 317.28L300.22 319.48L305.28 323.68L310.68 328.48L316.48 334.08L322.08 339.08L323.68 344.28L322.08 352.48L322.08 367.74L326.68 380.48L332.28 390.48L337.68 396.88L345.48 404.08L355.68 411.26L366.68 415.68L373.88 417.08L381.68 415.68L387.08 411.26L398.08 405.46L408.28 400.66L421.28 392.86L430.68 383.32L443.28 373.72L450.88 367.74L456.08 362.34L456.88 354.14L452.48 337.86L446.88 322.46L438.88 304.46L429.88 288.66L421.88 274.06L415.48 258.86L412.28 248.26L409.08 236.86L408.68 225.66L408.68 216.66L410.28 209.06L417.88 203.86L426.68 201.06L432.48 194.66L438.28 187.06L451.28 182.66L461.08 182.66L471.08 185.86L480.28 190.66L487.28 197.66L493.68 209.06L493.68 221.66L492.48 230.26L489.28 241.66L485.28 251.86L481.28 258.86L476.48 265.46L474.08 268.86L470.48 271.86L464.68 274.06L458.48 273.46L453.48 273.46L448.08 271.06L444.88 267.06L441.08 263.46L438.28 259.86L437.08 253.46" id="iNI14gGR2" class="PFARYeHB_0"></path><path d="M627.71 292.24L623.71 289.74L617.71 287.74L611.71 283.99L602.71 281.74L593.96 281.74L588.46 281.74L582.21 280.24L577.71 276.99" id="cdIPXCqVV" class="PFARYeHB_1"></path><path d="" id="a13GpRupAi" class="PFARYeHB_2"></path><path d="M519.12 267.49L517.37 261.74L515.62 255.49L511.62 247.99L508.12 245.99L503.87 247.99C502.54 250.66 500.37 254.33 497.37 258.99C494.37 263.66 493.04 266.49 493.37 267.49L489.87 278.99" id="akvInbKTT" class="PFARYeHB_3"></path><path d="M570.37 274.66L557.12 267.66L546.62 264.66C540.46 269.83 535.29 272.41 531.12 272.41C526.96 272.41 524.54 271.99 523.87 271.16L518.12 266.66" id="cnyjItGr" class="PFARYeHB_4"></path><path d="M446.37 379.68L453.37 385.01L463.04 394.01L471.37 405.94L475.71 417.08L479.71 429.34L482.71 436.01L482.71 445.01L479.71 449.34L487.37 449.34L498.71 445.01L509.04 441.01L519.12 434.01L526.71 426.68L535.37 415.61L543.04 405.94L555.04 391.61L565.37 378.94C570.04 374.06 575.37 367.61 581.37 359.61C587.37 351.61 590.37 347.5 590.37 347.28L595.37 339.08L602.71 326.41L609.37 311.08L611.71 298.74L604.04 292.24L593.71 286.74L581.37 281.74" id="b1zdjPn6yw" class="PFARYeHB_5"></path><path d="M403.71 533.81C403.93 530.29 403.37 526.66 402.04 522.91L400.37 509.54L397.37 492.3L396.37 476.12L395.04 460.99L391.71 444.45L393.04 433.55L397.37 420.53L400.37 406.81" id="f2NTyNU0S" class="PFARYeHB_6"></path><path d="M441.04 375.74L444.71 377.08L452.37 384.08" id="a3tMc2Z8lu" class="PFARYeHB_7"></path><path d="M364.42 633.74L376.63 620.19L380.7 612.45C383.11 606.26 384.46 603.03 384.77 602.77C385.07 602.51 386.72 598.38 389.74 590.38L392 579.15L394.26 567.92C393.66 573.34 394.56 571.54 396.97 562.5C399.38 553.47 400.44 548.82 400.14 548.57L403.75 533.08" id="bDvgdUZVr" class="PFARYeHB_8"></path><path d="M441.04 632.58L437.84 620.58L433.71 602.24L432.37 585.58L432.37 570.24L432.37 557.58L430.37 543.24L428.04 533.81L422.04 529.58L405.04 529.58" id="g2EFsKm8rr" class="PFARYeHB_9"></path><path d="M378.14 201.78L372.14 204.44L362.81 209.11L354.47 211.78L343.81 216.44L333.14 221.44L318.14 226.78L313.14 229.44L310.47 233.78L303.81 238.44L301.14 241.44L295.14 244.44L289.81 245.99L285.47 246.78L289.81 254.44L295.14 263.78L299.81 269.66L303.81 277.44L305.14 284.11L303.81 293.78L299.81 293.78L294.14 293.78L288.81 293.78L282.14 293.78L276.6 290.44L274.14 281.74L275.47 271.78L277.81 262.49L280.47 253.11L282.14 243.44L278.81 237.44L274.14 231.44L269.47 222.78L267.81 214.78L266.47 204.44L266.47 194.78L266.47 186.78L267.81 177.11L269.47 166.78L269.47 157.44L270.47 148.44L273.14 137.78L276.6 129.11L280.47 120.44" id="bb50vihi0" class="PFARYeHB_10"></path><path d="M299.47 207.11L294.14 209.44L289.81 211.78L285.47 212.44L282.14 217.11L276.6 217.11L270.47 215.11C269.14 213.11 268.25 212 267.81 211.78C267.36 211.56 268.25 210.78 270.47 209.44L273.81 207.11L278.14 205.78L283.14 205.78C287.14 204.67 289.36 204 289.81 203.78C290.25 203.56 292.03 203.56 295.14 203.78L299.47 203.78L306.81 203.78L313.14 203.11" id="a819gARzW" class="PFARYeHB_11"></path><path d="M290.42 245.99L284.81 245.99L281.81 240.11L280.81 236.44L281.81 233.44L281.81 227.44L280.81 223.44" id="ace1bhNYI" class="PFARYeHB_12"></path><path d="M313.14 227.11L310.14 227.11L301.14 226.11L292.81 227.11" id="boGHgYD8q" class="PFARYeHB_13"></path><path d="M468.47 232.78L463.47 229.78L461.14 227.11L455.81 221.78L452.37 219.44C446.66 219.67 443.81 219.67 443.81 219.44C443.81 219.22 443.81 221.61 443.81 226.61L446.37 231.11L445.47 236.11L442.14 242.11L448.47 244.78L456.81 242.11C461.03 240.56 463.25 239.89 463.47 240.11C463.7 240.33 465.36 240 468.47 239.11L472.47 239.11L478.14 236.11L480.14 229.78L480.14 226.11L480.14 218.78L480.14 211.44C478.81 207.67 478.14 205.67 478.14 205.44C478.14 205.22 476.25 202.56 472.47 197.44L465.81 193.44" id="c569AWwdqu" class="PFARYeHB_14"></path><path d="M471.49 224.82L468.82 220.49L463.15 215.82L458.15 213.15L452.37 211.15L446.37 206.15L441.04 200.82L442.82 196.82L446.37 192.49L452.37 192.49L455.49 197.82" id="a6raQaFs" class="PFARYeHB_15"></path><path d="M456.26 262.49L453.15 259.82L448.82 253.82L444.82 245.99L444.82 236.15L446.37 230.15L450.49 227.82L458.82 226.11L464.15 230.15" id="bAimo4Kuk" class="PFARYeHB_16"></path></defs><g><g><g><g><use xlink:href="#iNI14gGR2" opacity="1" fill-opacity="0" stroke="#000000" stroke-width="7" stroke-opacity="1"></use></g></g><g><g><use xlink:href="#cdIPXCqVV" opacity="1" fill-opacity="0" stroke="#000000" stroke-width="7" stroke-opacity="1"></use></g></g><g><g><use xlink:href="#a13GpRupAi" opacity="1" fill-opacity="0" stroke="#000000" stroke-width="7" stroke-opacity="1"></use></g></g><g><g><use xlink:href="#akvInbKTT" opacity="1" fill-opacity="0" stroke="#000000" stroke-width="7" stroke-opacity="1"></use></g></g><g><g><use xlink:href="#cnyjItGr" opacity="1" fill-opacity="0" stroke="#000000" stroke-width="7" stroke-opacity="1"></use></g></g><g><g><use xlink:href="#b1zdjPn6yw" opacity="1" fill-opacity="0" stroke="#000000" stroke-width="7" stroke-opacity="1"></use></g></g><g><g><use xlink:href="#f2NTyNU0S" opacity="1" fill-opacity="0" stroke="#000000" stroke-width="7" stroke-opacity="1"></use></g></g><g><g><use xlink:href="#a3tMc2Z8lu" opacity="1" fill-opacity="0" stroke="#000000" stroke-width="7" stroke-opacity="1"></use></g></g><g><g><use xlink:href="#bDvgdUZVr" opacity="1" fill-opacity="0" stroke="#000000" stroke-width="7" stroke-opacity="1"></use></g></g><g><g><use xlink:href="#g2EFsKm8rr" opacity="1" fill-opacity="0" stroke="#000000" stroke-width="7" stroke-opacity="1"></use></g></g><g><g><use xlink:href="#bb50vihi0" opacity="1" fill-opacity="0" stroke="#000000" stroke-width="7" stroke-opacity="1"></use></g></g><g><g><use xlink:href="#a819gARzW" opacity="1" fill-opacity="0" stroke="#000000" stroke-width="7" stroke-opacity="1"></use></g></g><g><g><use xlink:href="#ace1bhNYI" opacity="1" fill-opacity="0" stroke="#000000" stroke-width="7" stroke-opacity="1"></use></g></g><g><g><use xlink:href="#boGHgYD8q" opacity="1" fill-opacity="0" stroke="#000000" stroke-width="7" stroke-opacity="1"></use></g></g><g><g><use xlink:href="#c569AWwdqu" opacity="1" fill-opacity="0" stroke="#000000" stroke-width="7" stroke-opacity="1"></use></g></g><g><g><use xlink:href="#a6raQaFs" opacity="1" fill-opacity="0" stroke="#000000" stroke-width="7" stroke-opacity="1"></use></g></g><g><g><use xlink:href="#bAimo4Kuk" opacity="1" fill-opacity="0" stroke="#000000" stroke-width="7" stroke-opacity="1"></use></g></g></g></g><style data-made-with="vivus-instant">.PFARYeHB_0{stroke-dasharray:1615 1617;stroke-dashoffset:1616;animation:PFARYeHB_draw 1475ms linear 0ms forwards;}.PFARYeHB_1{stroke-dasharray:54 56;stroke-dashoffset:55;animation:PFARYeHB_draw 50ms linear 1475ms forwards;}.PFARYeHB_2{stroke-dasharray:0 2;stroke-dashoffset:1;animation:PFARYeHB_draw 0ms linear 1526ms forwards;}.PFARYeHB_3{stroke-dasharray:65 67;stroke-dashoffset:66;animation:PFARYeHB_draw 60ms linear 1526ms forwards;}.PFARYeHB_4{stroke-dasharray:59 61;stroke-dashoffset:60;animation:PFARYeHB_draw 54ms linear 1587ms forwards;}.PFARYeHB_5{stroke-dasharray:328 330;stroke-dashoffset:329;animation:PFARYeHB_draw 300ms linear 1642ms forwards;}.PFARYeHB_6{stroke-dasharray:130 132;stroke-dashoffset:131;animation:PFARYeHB_draw 119ms linear 1942ms forwards;}.PFARYeHB_7{stroke-dasharray:15 17;stroke-dashoffset:16;animation:PFARYeHB_draw 14ms linear 2062ms forwards;}.PFARYeHB_8{stroke-dasharray:117 119;stroke-dashoffset:118;animation:PFARYeHB_draw 107ms linear 2076ms forwards;}.PFARYeHB_9{stroke-dasharray:125 127;stroke-dashoffset:126;animation:PFARYeHB_draw 115ms linear 2184ms forwards;}.PFARYeHB_10{stroke-dasharray:363 365;stroke-dashoffset:364;animation:PFARYeHB_draw 332ms linear 2299ms forwards;}.PFARYeHB_11{stroke-dasharray:85 87;stroke-dashoffset:86;animation:PFARYeHB_draw 78ms linear 2631ms forwards;}.PFARYeHB_12{stroke-dasharray:30 32;stroke-dashoffset:31;animation:PFARYeHB_draw 28ms linear 2710ms forwards;}.PFARYeHB_13{stroke-dasharray:21 23;stroke-dashoffset:22;animation:PFARYeHB_draw 20ms linear 2738ms forwards;}.PFARYeHB_14{stroke-dasharray:142 144;stroke-dashoffset:143;animation:PFARYeHB_draw 130ms linear 2758ms forwards;}.PFARYeHB_15{stroke-dasharray:62 64;stroke-dashoffset:63;animation:PFARYeHB_draw 57ms linear 2889ms forwards;}.PFARYeHB_16{stroke-dasharray:57 59;stroke-dashoffset:58;animation:PFARYeHB_draw 52ms linear 2947ms forwards;}@keyframes PFARYeHB_draw{100%{stroke-dashoffset:0;}}@keyframes PFARYeHB_fade{0%{stroke-opacity:1;}94.44444444444444%{stroke-opacity:1;}100%{stroke-opacity:0;}}</style></svg>