<!--?xml version="1.0" encoding="UTF-8" standalone="no"?-->

<svg version="1.1" xmlns="http://www.w3.org/2000/svg" xmlns:xlink="http://www.w3.org/1999/xlink" preserveAspectRatio="xMidYMid meet" viewBox="0 0 640 640" width="640" height="640" style=""><defs><path d="M290.29 116.74L301.16 113.12L317.1 113.12L331.59 113.12L343.91 113.12L345.36 122.54L345.36 130.51L345.36 145L345.36 156.59L351.88 164.57L359.13 174.71L366.38 179.06L373.62 188.48L380.14 199.35L381.59 212.39L385.94 231.96L385.94 246.45L383.77 258.77L383.77 270.36L380.14 280.51L373.62 292.83L368.55 300.8L366.38 311.67L362.03 323.99L359.13 333.41L351.88 333.41L345.36 328.33L338.12 323.99L330.14 320L322.17 316.01L317.1 309.49L309.13 298.62L301.16 296.45L297.54 305.87L301.16 317.46L307.68 325.43L320 336.3L324.35 343.55L322.17 358.04L324.35 376.16L331.59 385.58L342.46 397.9L354.78 410.22L368.55 416.74L380.14 414.57L396.81 405.14L417.83 395.72L436.67 377.61L446.09 369.64L456.23 358.04L453.33 339.93L447.54 325.43L441.01 311.67L432.32 292.83L425.07 284.86L419.28 268.91L414.2 255.14L411.3 237.03L409.13 222.54L409.13 212.39L419.28 203.7L427.25 197.9L438.12 186.3L453.33 182.68L467.83 186.3L478.7 192.83L488.84 199.35L491.01 209.49L493.19 222.54L504.78 222.54L506.96 231.96L504.78 239.93L509.86 248.62L513.48 255.14L517.83 265.29L522.9 273.26L531.59 274.71L541.01 268.91L551.88 266.74L561.3 270.36L570 273.26L579.42 273.26L585.94 265.29L588.12 256.59L588.12 248.62L588.12 239.93L596.09 229.06L596.09 218.91L588.12 218.91L576.52 216.01L576.52 209.49L579.42 199.35L583.77 188.48L588.12 166.74L583.77 154.42L576.52 145L570 130.51L567.1 116.74L567.1 106.59L567.1 98.62L561.3 95.72L551.88 88.48L535.94 81.23L520 66.74L506.96 55.87L488.84 40.65L467.83 31.96L451.16 26.16L433.77 22.54L419.28 20.36L399.71 22.54L380.14 26.16L362.03 31.96L351.88 35.58L338.12 44.28L325.8 49.35L317.1 55.87L303.33 66.74L297.54 75.43L288.12 85.58L283.04 95.72L280.87 104.42L280.87 116.74L290.29 116.74Z" id="b1xXztnXgp" class="enLrjINQ_0"></path><path d="" id="euiEqsFeo" class="enLrjINQ_1"></path><path d="M302.61 276.16L302.61 289.2L291.01 293.55L282.32 293.55L275.8 285.58L275.8 277.61L280.87 267.46L280.87 258.04L282.32 250.8L283.77 239.2L283.77 229.06L282.32 220.36L291.01 210.22L310.58 203.7L302.61 203.7L291.01 203.7L280.87 203.7L270 210.22L267.1 199.35L270 179.06L270 168.91L272.17 155.87L275.8 142.83L277.25 128.33" id="hpXDpOL05" class="enLrjINQ_2"></path><path d="" id="j2EKhNJ7Jd" class="enLrjINQ_3"></path><path d="M300.43 271.09L296.09 262.39L288.84 251.52L270.72 221.81L285.94 241.38L296.09 236.3L310.58 232.68L327.25 225.43L348.26 216.74L366.38 206.59L380.14 200.8" id="aKR9B5tFW" class="enLrjINQ_4"></path><path d="M491.74 260.94L485.94 275.43L491.74 278.33L494.64 268.19L500.43 259.49L506.23 248.62L514.93 263.12L522.17 272.54L535.94 275.43L545.36 268.19L556.96 268.19L570.72 275.43L585.94 279.78L601.16 281.96L620 289.93L633.04 297.17" id="b1mvg4SLY8" class="enLrjINQ_5"></path><path d="M482.32 188.48L490.29 200.8L492.46 222.54L485.94 244.28L480.14 260.94L464.2 272.9L446.09 271.09L438.48 260.94" id="b3bCd6pbEi" class="enLrjINQ_6"></path><path d="M564.2 271.09L570.72 276.16L580.14 280.51L588.12 283.41L598.26 289.2L606.23 293.55L608.41 308.04L603.33 320L596.09 335.58L588.12 346.45L580.14 357.32L570.72 370.36L564.2 376.88L554.06 388.48L546.81 400.8L539.57 405.87L531.59 418.91L521.45 432.68L512.03 438.48L501.88 442.1L490.29 448.62L480.87 445.72L480.87 438.48L477.97 426.16L473.62 414.57L467.1 400.8L456.96 388.48L443.91 378.33" id="j1hQtmeBDi" class="enLrjINQ_7"></path><path d="M408.41 529.78L420.72 529.78L429.42 536.3L429.42 548.62L433.77 564.57L433.77 579.78L433.77 593.55L435.22 605.87L435.22 617.46L440.29 631.96" id="a2gzNixy0J" class="enLrjINQ_8"></path><path d="M399.71 403.7L399.71 413.12L392.46 439.93L392.46 455.87L396.09 484.13L399.71 510.22L402.61 525.43L402.61 542.83L396.09 572.54L388.84 595L384.49 610.22L375.07 621.09L366.38 631.96" id="e1hs2MAHZz" class="enLrjINQ_9"></path></defs><g><g><g><g><use xlink:href="#b1xXztnXgp" opacity="1" fill-opacity="0" stroke="#000000" stroke-width="5" stroke-opacity="1"></use></g></g><g><g><use xlink:href="#euiEqsFeo" opacity="1" fill-opacity="0" stroke="#000000" stroke-width="5" stroke-opacity="1"></use></g></g><g><g><use xlink:href="#hpXDpOL05" opacity="1" fill-opacity="0" stroke="#000000" stroke-width="5" stroke-opacity="1"></use></g></g><g><g><use xlink:href="#j2EKhNJ7Jd" opacity="1" fill-opacity="0" stroke="#000000" stroke-width="5" stroke-opacity="1"></use></g></g><g><g><use xlink:href="#aKR9B5tFW" opacity="1" fill-opacity="0" stroke="#000000" stroke-width="5" stroke-opacity="1"></use></g></g><g><g><use xlink:href="#b1mvg4SLY8" opacity="1" fill-opacity="0" stroke="#000000" stroke-width="5" stroke-opacity="1"></use></g></g><g><g><use xlink:href="#b3bCd6pbEi" opacity="1" fill-opacity="0" stroke="#000000" stroke-width="5" stroke-opacity="1"></use></g></g><g><g><use xlink:href="#j1hQtmeBDi" opacity="1" fill-opacity="0" stroke="#000000" stroke-width="5" stroke-opacity="1"></use></g></g><g><g><use xlink:href="#a2gzNixy0J" opacity="1" fill-opacity="0" stroke="#000000" stroke-width="5" stroke-opacity="1"></use></g></g><g><g><use xlink:href="#e1hs2MAHZz" opacity="1" fill-opacity="0" stroke="#000000" stroke-width="5" stroke-opacity="1"></use></g></g></g></g><style data-made-with="vivus-instant">.enLrjINQ_0{stroke-dasharray:1594 1596;stroke-dashoffset:1595;animation:enLrjINQ_draw 3000ms linear 0ms forwards;}.enLrjINQ_1{stroke-dasharray:0 2;stroke-dashoffset:1;animation:enLrjINQ_draw 3000ms linear 0ms forwards;}.enLrjINQ_2{stroke-dasharray:271 273;stroke-dashoffset:272;animation:enLrjINQ_draw 3000ms linear 0ms forwards;}.enLrjINQ_3{stroke-dasharray:0 2;stroke-dashoffset:1;animation:enLrjINQ_draw 3000ms linear 0ms forwards;}.enLrjINQ_4{stroke-dasharray:186 188;stroke-dashoffset:187;animation:enLrjINQ_draw 3000ms linear 0ms forwards;}.enLrjINQ_5{stroke-dasharray:204 206;stroke-dashoffset:205;animation:enLrjINQ_draw 3000ms linear 0ms forwards;}.enLrjINQ_6{stroke-dasharray:128 130;stroke-dashoffset:129;animation:enLrjINQ_draw 3000ms linear 0ms forwards;}.enLrjINQ_7{stroke-dasharray:341 343;stroke-dashoffset:342;animation:enLrjINQ_draw 3000ms linear 0ms forwards;}.enLrjINQ_8{stroke-dasharray:121 123;stroke-dashoffset:122;animation:enLrjINQ_draw 3000ms linear 0ms forwards;}.enLrjINQ_9{stroke-dasharray:239 241;stroke-dashoffset:240;animation:enLrjINQ_draw 3000ms linear 0ms forwards;}@keyframes enLrjINQ_draw{100%{stroke-dashoffset:0;}}@keyframes enLrjINQ_fade{0%{stroke-opacity:1;}94.44444444444444%{stroke-opacity:1;}100%{stroke-opacity:0;}}</style></svg>