<?xml version="1.0" standalone="no"?>
<!DOCTYPE svg PUBLIC "-//W3C//DTD SVG 20010904//EN"
 "http://www.w3.org/TR/2001/REC-SVG-20010904/DTD/svg10.dtd">
<svg version="1.0" xmlns="http://www.w3.org/2000/svg"
 width="2264.000000pt" height="2460.000000pt" viewBox="0 0 2264.000000 2460.000000"
 preserveAspectRatio="xMidYMid meet">
<metadata>
Created by potrace 1.15, written by Peter Selinger 2001-2017
</metadata>
<g transform="translate(0.000000,2460.000000) scale(0.100000,-0.100000)"
fill="#000000" stroke="none">
<path d="M13925 24090 c-27 -4 -111 -15 -185 -25 -292 -37 -627 -108 -678
-143 -15 -11 -53 -22 -84 -26 -74 -8 -526 -160 -733 -245 -11 -5 -40 -17 -65
-26 -25 -10 -58 -24 -75 -31 -16 -7 -57 -22 -90 -34 -33 -13 -88 -35 -123 -51
-35 -16 -67 -29 -71 -29 -4 0 -29 -11 -57 -23 -27 -13 -74 -35 -104 -48 -80
-35 -279 -138 -320 -165 -19 -13 -40 -24 -47 -24 -7 0 -13 -4 -13 -10 0 -5 -4
-10 -10 -10 -17 0 -364 -212 -430 -264 -138 -107 -305 -260 -545 -501 -138
-137 -266 -268 -286 -290 -19 -22 -68 -78 -109 -125 -179 -203 -280 -336 -422
-553 -67 -102 -198 -391 -256 -562 -82 -242 -92 -316 -101 -745 -8 -372 1
-312 -89 -570 -45 -126 -60 -186 -103 -390 -8 -41 -26 -142 -65 -380 -24 -144
-33 -237 -44 -460 -6 -118 -15 -240 -20 -270 -12 -74 -54 -488 -65 -650 -4
-47 -11 -125 -16 -175 -15 -155 -10 -406 11 -570 21 -155 35 -286 45 -415 12
-163 39 -244 138 -422 31 -55 62 -106 132 -213 96 -147 127 -198 168 -279 36
-72 40 -88 40 -151 0 -39 -6 -96 -12 -126 -6 -29 -18 -94 -27 -144 -9 -49 -25
-135 -36 -190 -11 -55 -24 -118 -28 -140 -20 -102 -64 -299 -81 -360 -34 -124
-48 -245 -48 -432 -1 -217 9 -276 65 -383 47 -89 110 -153 196 -196 102 -53
168 -56 329 -16 141 35 339 66 339 54 0 -3 -22 -39 -49 -81 -52 -82 -63 -105
-111 -226 -26 -65 -33 -99 -37 -181 -8 -152 14 -260 83 -399 55 -112 128 -182
213 -205 66 -17 83 -32 178 -153 87 -111 260 -291 445 -464 103 -96 148 -165
148 -229 0 -17 -13 -98 -29 -180 -57 -290 -63 -477 -26 -763 22 -161 11 -130
135 -416 10 -22 28 -65 41 -95 12 -30 36 -80 52 -110 16 -30 39 -73 50 -95 48
-96 144 -219 284 -368 40 -43 115 -129 167 -190 97 -116 173 -189 355 -340
225 -188 298 -232 501 -300 141 -47 209 -63 341 -82 203 -29 279 -18 379 55
36 26 115 75 175 110 103 58 166 100 307 202 32 23 61 39 65 35 3 -4 2 -58 -4
-120 -8 -86 -22 -149 -61 -272 -61 -195 -88 -287 -101 -340 -5 -22 -17 -69
-26 -105 -10 -36 -21 -81 -26 -100 -4 -19 -15 -64 -24 -100 -18 -73 -46 -211
-65 -315 -15 -86 -9 -202 14 -275 76 -239 88 -333 106 -805 15 -368 31 -552
71 -815 19 -123 26 -162 48 -270 6 -31 18 -137 26 -235 14 -171 21 -217 58
-395 27 -124 46 -274 63 -480 21 -256 14 -383 -35 -590 -6 -25 -17 -85 -25
-135 -45 -271 -40 -249 -164 -735 -10 -41 -25 -102 -32 -135 -24 -115 -41
-181 -66 -255 -36 -110 -40 -127 -59 -215 -51 -234 -111 -461 -210 -800 -39
-135 -104 -308 -132 -350 -14 -22 -47 -65 -73 -95 -103 -121 -224 -276 -395
-504 -98 -131 -205 -268 -238 -303 l-60 -63 179 2 179 3 71 110 c68 104 183
264 238 330 192 233 306 396 349 500 15 39 32 79 36 90 16 38 60 161 95 265
37 111 58 189 162 590 14 52 36 149 49 215 14 66 43 192 66 280 101 401 125
511 162 750 2 17 17 89 31 160 15 72 38 195 52 275 53 308 77 430 89 450 9 14
49 12 130 -5 91 -19 175 -19 292 1 106 18 150 14 181 -19 41 -43 112 -235 166
-450 8 -31 17 -61 20 -65 20 -34 36 -239 46 -602 37 -1356 52 -1635 105 -1875
7 -33 21 -107 30 -165 21 -129 83 -400 135 -585 15 -52 49 -152 65 -190 7 -16
15 -38 19 -48 5 -15 20 -17 127 -17 93 0 120 3 116 12 -10 26 -70 185 -87 233
-10 28 -28 84 -40 125 -12 41 -32 109 -45 150 -33 106 -45 171 -45 250 0 37
-11 115 -24 172 -61 260 -108 844 -131 1643 -3 105 -8 240 -10 300 -3 61 -9
225 -15 366 -5 141 -16 290 -24 331 -8 41 -54 177 -102 301 -70 184 -94 236
-127 273 -66 75 -72 76 -417 84 -182 3 -315 10 -330 17 -45 19 -60 48 -91 169
-60 234 -87 415 -95 639 -4 112 -12 183 -26 235 -20 77 -41 203 -53 320 -6 65
-18 136 -36 219 -25 112 -38 219 -44 366 -3 88 -8 203 -10 255 -2 52 -6 160
-10 240 -8 212 -22 300 -66 437 -33 103 -39 136 -39 207 0 80 5 110 45 266 9
36 23 90 30 120 22 92 61 241 84 320 36 125 40 141 65 250 32 139 53 274 60
388 7 120 22 175 62 239 53 83 148 144 249 158 33 4 77 23 130 55 44 26 113
65 154 86 88 46 178 131 363 344 142 163 411 440 428 440 24 0 119 -55 185
-108 83 -67 179 -158 364 -346 240 -245 336 -354 425 -483 79 -116 144 -308
206 -613 22 -112 52 -222 75 -280 7 -19 30 -80 50 -135 21 -55 43 -113 51
-130 17 -39 110 -340 119 -383 7 -32 6 -33 -14 -22 -59 31 -85 -28 -86 -196 0
-126 6 -139 80 -176 33 -17 58 -21 155 -20 147 0 224 18 399 92 236 100 415
186 550 262 141 80 435 271 496 323 99 84 164 153 194 207 18 31 59 87 93 124
81 92 230 293 363 489 270 398 401 579 540 740 24 28 79 93 122 146 43 53 130
157 194 230 63 74 155 184 204 244 49 61 123 151 165 200 111 130 296 383 375
510 37 61 107 171 154 245 47 74 108 180 136 235 28 55 78 141 112 190 33 50
76 122 94 160 18 39 62 117 97 175 62 100 105 179 151 280 11 25 49 99 85 165
242 444 319 669 303 883 -5 62 -13 92 -46 157 -68 138 -187 248 -429 395 -56
34 -104 66 -108 71 -11 19 132 -17 236 -58 68 -28 135 -57 260 -116 41 -19
140 -65 220 -102 197 -91 310 -148 405 -206 98 -60 187 -92 226 -84 32 7 69
48 69 77 0 26 -37 97 -69 131 -26 28 -94 67 -117 67 -6 0 -65 27 -132 59 -66
33 -160 76 -209 97 -48 20 -92 41 -97 46 -6 4 -16 8 -23 8 -7 0 -61 23 -120
51 -60 28 -133 62 -163 76 -30 14 -68 31 -85 38 -140 63 -310 92 -585 99 -113
3 -235 10 -273 16 -75 11 -168 50 -257 107 -58 38 -72 53 -47 53 69 0 287 199
418 381 112 155 126 213 139 599 11 332 15 354 103 503 24 40 61 108 81 151
37 77 47 109 80 256 22 97 45 196 57 241 21 84 -7 173 -59 185 -15 4 -48 20
-74 36 -25 16 -61 33 -79 38 -18 5 -161 10 -317 10 l-285 1 -36 37 c-107 111
-111 133 -47 265 73 149 120 217 151 217 50 0 75 42 116 195 48 182 66 265 74
360 11 120 47 244 160 540 40 106 38 170 -12 270 -22 44 -48 109 -58 145 -50
180 -92 271 -212 459 -201 311 -272 442 -328 601 -37 103 -65 217 -65 265 0
44 -28 112 -53 134 -10 7 -17 18 -17 23 0 6 -6 24 -14 41 -8 18 -27 70 -42
117 -46 145 -87 220 -121 220 -34 0 -42 -26 -33 -110 15 -133 40 -208 126
-380 47 -94 53 -114 74 -240 6 -36 15 -78 20 -95 5 -16 21 -70 36 -120 14 -49
30 -99 34 -110 5 -11 21 -49 36 -85 34 -84 108 -232 142 -284 15 -22 60 -81
100 -131 131 -161 175 -289 175 -510 0 -110 -4 -149 -27 -240 -15 -61 -31
-119 -36 -130 -12 -32 -67 -224 -80 -285 -7 -30 -16 -66 -21 -80 -4 -14 -16
-63 -25 -109 -13 -62 -29 -102 -64 -160 -53 -87 -130 -244 -130 -264 0 -8 -22
-50 -48 -94 -84 -140 -107 -205 -107 -303 0 -74 4 -92 29 -143 51 -101 139
-168 276 -210 57 -18 95 -20 315 -21 l250 -2 3 -49 c5 -74 -16 -305 -33 -361
-8 -27 -37 -83 -64 -125 -59 -91 -98 -166 -118 -228 -11 -35 -17 -130 -23
-381 -8 -306 -14 -376 -35 -435 -42 -118 -109 -250 -157 -308 -13 -16 -73 -65
-133 -110 -60 -45 -115 -92 -121 -105 -6 -12 -13 -25 -16 -28 -3 -3 -90 47
-193 111 -245 153 -285 174 -445 235 -122 47 -177 67 -292 101 -90 28 -195
-18 -321 -139 -134 -128 -194 -166 -302 -186 -200 -38 -394 90 -455 299 -14
49 -56 210 -75 286 -28 114 -54 182 -123 329 -46 97 -69 130 -152 216 l-60 62
0 270 c0 403 -21 545 -84 574 -37 16 -68 -1 -106 -59 -39 -60 -75 -85 -159
-112 -36 -12 -75 -28 -88 -36 -13 -9 -28 -13 -33 -10 -13 8 -12 82 0 165 6 36
10 142 10 235 0 239 -28 362 -122 543 -186 362 -491 603 -953 757 -94 32 -130
38 -250 46 -202 13 -512 2 -600 -22 -204 -55 -436 -236 -573 -448 -65 -99 -87
-118 -211 -177 -62 -30 -115 -54 -118 -54 -2 0 -30 -17 -61 -39 -31 -21 -73
-41 -93 -45 -101 -18 -298 -193 -347 -306 -79 -184 -97 -881 -32 -1200 34
-165 57 -248 150 -530 32 -96 65 -202 75 -235 37 -125 128 -402 148 -445 58
-131 99 -214 146 -294 28 -50 59 -113 68 -140 10 -28 28 -65 40 -83 31 -43
163 -301 163 -318 0 -17 32 -77 64 -120 75 -102 206 -345 273 -510 45 -110 65
-155 130 -295 40 -86 53 -117 78 -180 9 -25 21 -54 26 -65 5 -11 17 -43 28
-71 11 -28 28 -71 39 -95 29 -65 40 -100 48 -144 3 -22 21 -85 39 -140 43
-129 120 -379 210 -675 28 -92 37 -158 33 -240 -3 -70 -9 -95 -33 -143 -39
-76 -138 -172 -295 -287 -181 -133 -215 -162 -465 -397 -230 -217 -328 -322
-428 -459 -73 -99 -115 -138 -257 -237 -52 -36 -104 -74 -116 -85 -30 -29 -66
-45 -179 -82 -55 -18 -129 -46 -164 -62 -35 -16 -80 -35 -100 -42 -20 -8 -63
-24 -95 -36 -78 -28 -142 -61 -229 -117 -40 -26 -99 -60 -132 -76 -33 -16 -82
-46 -110 -65 -225 -161 -287 -182 -439 -147 -197 46 -437 148 -596 253 -143
94 -611 580 -794 823 -58 77 -126 213 -171 339 -20 58 -50 140 -66 183 -60
162 -69 220 -69 454 0 193 2 224 24 311 21 82 25 130 30 314 l5 216 -82 79
c-340 325 -525 524 -562 608 -39 87 -190 213 -283 237 -82 20 -117 115 -117
313 0 120 2 133 23 162 13 18 26 47 29 65 6 40 46 93 65 86 7 -3 21 -36 31
-74 29 -107 81 -210 158 -311 76 -99 338 -359 406 -403 23 -15 104 -55 180
-89 76 -35 147 -67 158 -72 30 -13 212 -78 270 -96 60 -18 115 -45 174 -86 49
-34 331 -179 371 -192 14 -4 43 -16 65 -25 22 -10 89 -35 149 -56 l110 -38 39
45 c41 45 117 153 117 164 0 4 6 21 14 38 18 42 31 80 51 152 18 62 42 145 95
325 94 316 130 412 207 555 122 225 265 547 278 626 4 24 11 50 15 59 21 40
97 252 115 318 9 31 23 82 32 112 17 61 59 256 73 340 30 183 42 265 50 345 6
50 12 110 15 135 3 25 8 158 11 295 7 254 6 261 -36 560 -5 39 -17 156 -25
260 -28 347 -45 519 -75 783 -6 48 -15 134 -20 192 -13 132 -26 224 -41 275
-16 57 -55 136 -81 165 -13 14 -49 55 -80 90 -82 94 -154 169 -381 400 -318
323 -574 606 -595 660 -3 8 -15 31 -27 50 -12 19 -33 69 -47 110 -61 179 -83
354 -68 563 16 241 32 614 33 787 1 133 -3 177 -17 225 -38 123 -92 212 -147
240 -15 8 -86 20 -156 27 -234 21 -1760 -24 -1838 -54 -48 -19 -105 -61 -199
-147 -140 -127 -151 -124 -150 47 1 121 11 176 72 394 38 136 66 219 97 286
14 29 25 54 25 56 0 14 163 293 190 325 19 22 60 77 90 121 86 126 173 236
274 345 51 55 128 141 171 190 98 114 340 351 495 486 62 54 188 150 330 251
87 62 325 198 480 275 139 68 340 163 347 163 2 0 28 11 56 24 46 20 129 55
247 101 45 18 193 72 345 125 66 23 149 52 185 65 165 60 487 163 580 185 320
78 541 100 991 100 396 0 700 -18 852 -51 51 -11 137 -29 192 -40 55 -12 107
-25 116 -30 18 -9 120 -39 254 -74 302 -79 269 -68 440 -150 72 -35 154 -73
184 -84 95 -38 424 -208 491 -255 36 -25 106 -72 155 -105 156 -104 192 -132
287 -217 51 -46 138 -121 193 -166 123 -103 301 -274 408 -393 44 -49 122
-135 172 -190 51 -55 107 -118 126 -139 59 -68 382 -369 455 -424 38 -29 94
-64 124 -79 30 -14 82 -43 115 -65 62 -41 255 -138 274 -138 6 0 25 -6 43 -14
18 -8 85 -33 148 -56 330 -120 386 -146 443 -205 79 -81 121 -209 116 -355 -3
-88 5 -112 39 -108 32 4 53 41 82 147 32 115 21 243 -28 320 -76 121 -279 285
-427 345 -287 118 -353 144 -375 150 -77 22 -383 207 -510 309 -152 122 -346
315 -480 477 -148 179 -418 443 -740 726 -242 211 -501 389 -780 532 -80 41
-161 85 -180 97 -19 12 -57 27 -85 34 -27 7 -63 18 -80 26 -211 94 -321 135
-425 159 -164 39 -311 76 -430 110 -69 20 -141 40 -160 46 -69 19 -197 39
-320 50 -285 24 -1002 44 -1085 30z m-2375 -3773 c25 -9 40 -23 54 -52 18 -38
19 -65 18 -540 -1 -275 -5 -534 -8 -575 -9 -122 11 -343 41 -435 57 -178 118
-312 167 -364 14 -14 35 -45 46 -68 42 -81 152 -203 514 -568 374 -378 425
-434 471 -518 41 -74 54 -201 23 -225 -6 -5 -33 -15 -61 -22 -27 -7 -76 -30
-107 -50 -31 -21 -69 -41 -84 -44 -28 -7 -184 -157 -184 -177 0 -19 216 30
298 67 80 37 154 64 173 64 20 0 29 -45 29 -142 0 -37 9 -140 20 -229 31 -243
58 -515 81 -814 14 -188 19 -751 8 -845 -39 -307 -65 -428 -128 -600 -17 -47
-44 -132 -61 -190 -65 -225 -111 -367 -140 -435 -5 -11 -24 -56 -41 -100 -18
-44 -72 -159 -121 -257 -48 -97 -88 -179 -88 -183 0 -3 -11 -30 -24 -58 -23
-50 -54 -134 -91 -242 -9 -27 -21 -59 -25 -70 -5 -11 -16 -47 -25 -80 -9 -33
-21 -71 -25 -85 -5 -14 -16 -59 -25 -100 -9 -41 -20 -93 -25 -115 -5 -22 -12
-74 -15 -115 -8 -89 -24 -178 -36 -199 -5 -9 -18 -41 -28 -71 -21 -63 -45 -77
-61 -34 -14 36 -28 46 -140 101 -52 26 -145 75 -206 109 -60 34 -150 81 -200
104 -99 47 -99 47 -204 85 -41 15 -103 41 -138 56 -35 16 -65 29 -67 29 -13 0
-230 109 -270 135 -49 33 -331 310 -398 392 -75 92 -87 126 -107 323 -24 227
-31 337 -31 520 0 165 -3 206 -21 265 -29 100 -116 270 -207 404 -79 117 -181
279 -181 287 0 2 -17 33 -38 67 -65 105 -122 208 -164 297 -22 47 -71 126
-108 175 -37 50 -90 134 -119 187 -50 96 -50 98 -32 115 31 29 41 68 41 157 0
182 -78 469 -137 506 -13 8 10 9 86 4 82 -5 105 -4 112 7 13 21 11 47 -7 85
-23 47 -12 93 35 146 49 55 120 90 248 122 119 29 182 59 280 132 67 51 75 54
130 54 90 0 223 19 262 38 47 22 131 85 128 95 -2 5 -26 21 -54 37 -84 47
-165 54 -511 46 -441 -9 -649 -29 -886 -85 -22 -5 -79 -26 -128 -47 -69 -29
-92 -34 -101 -25 -20 20 -15 643 7 806 23 178 57 494 87 805 40 432 73 696 98
790 24 90 52 187 60 205 8 18 31 90 150 464 l26 83 137 127 c176 164 228 200
315 218 46 9 183 15 418 18 215 4 396 11 470 20 156 20 188 21 515 23 190 0
286 -3 310 -11z m4510 -2802 c103 -32 249 -100 397 -182 82 -47 140 -89 220
-162 135 -124 283 -292 283 -321 0 -6 4 -10 8 -10 10 0 47 -111 63 -185 16
-79 24 -481 10 -559 -7 -37 -16 -75 -21 -84 -17 -32 -41 -165 -65 -357 -13
-109 -44 -244 -82 -365 -28 -87 -144 -326 -248 -508 -131 -229 -335 -462 -455
-519 -159 -77 -305 -101 -396 -67 -133 49 -272 150 -370 269 -67 81 -114 163
-159 276 -70 174 -93 208 -141 209 -74 1 -105 -141 -68 -317 39 -189 127 -328
287 -452 230 -177 481 -265 662 -232 33 7 98 15 146 20 89 9 139 29 249 99
151 96 321 308 524 650 112 189 174 327 210 472 45 177 83 312 125 450 30 96
95 161 227 225 98 48 110 47 119 -13 7 -53 -9 -267 -26 -347 -24 -110 -40
-164 -68 -221 -37 -77 -61 -136 -111 -269 -22 -60 -58 -139 -79 -175 -21 -36
-47 -81 -58 -100 -83 -149 -135 -243 -144 -260 -17 -32 -103 -176 -115 -190
-37 -46 -124 -322 -124 -396 0 -126 121 -183 252 -119 71 34 93 73 102 175 4
41 11 89 16 105 5 17 23 75 41 130 56 178 148 383 350 775 16 30 29 60 29 67
0 19 15 23 53 12 69 -19 125 -134 192 -394 61 -236 104 -339 190 -460 118
-166 205 -204 470 -205 267 -2 329 21 480 175 113 115 127 125 184 125 99 0
351 -93 443 -163 46 -35 253 -173 443 -294 124 -79 201 -121 262 -146 23 -9
61 -25 85 -36 46 -20 120 -43 205 -61 29 -7 78 -28 110 -47 32 -19 103 -58
158 -86 55 -28 123 -65 150 -82 28 -17 57 -34 65 -37 33 -14 132 -102 173
-153 64 -81 82 -140 80 -256 -1 -87 -14 -151 -43 -214 -5 -11 -23 -54 -40 -95
-73 -176 -205 -443 -228 -464 -12 -11 -22 -24 -22 -30 0 -16 -72 -154 -190
-366 -29 -52 -71 -129 -93 -170 -51 -95 -107 -186 -178 -292 -31 -46 -70 -108
-87 -138 -186 -342 -247 -436 -451 -694 -88 -112 -371 -457 -395 -482 -26 -27
-274 -323 -409 -488 -209 -254 -284 -357 -526 -716 -117 -173 -267 -386 -333
-473 -143 -188 -312 -361 -429 -438 -77 -51 -322 -195 -394 -231 -16 -8 -70
-35 -120 -61 -49 -25 -130 -62 -180 -82 -49 -21 -106 -45 -125 -55 -19 -10
-60 -21 -90 -25 l-56 -7 -21 49 c-11 26 -35 84 -52 128 -18 44 -36 89 -41 100
-5 11 -16 43 -25 70 -10 28 -21 59 -26 70 -4 11 -26 76 -49 145 -22 69 -45
134 -50 145 -41 91 -130 406 -146 515 -8 56 -52 248 -64 275 -5 11 -14 36 -22
55 -48 125 -129 250 -254 390 -176 199 -243 270 -404 431 -102 102 -240 229
-307 283 -79 63 -120 102 -117 111 9 22 84 79 144 108 33 16 89 59 141 109
102 99 139 146 169 213 13 28 26 57 31 67 4 9 13 55 20 102 12 85 2 241 -21
336 -5 19 -21 85 -36 145 -28 115 -91 338 -126 440 -11 33 -24 74 -28 90 -20
75 -157 436 -205 540 -12 28 -30 78 -38 111 -9 34 -31 93 -50 132 -19 39 -43
97 -53 129 -15 48 -289 606 -314 638 -4 6 -33 60 -65 120 -32 61 -86 162 -120
225 -63 115 -189 364 -218 430 -9 19 -27 61 -41 93 -14 31 -38 85 -52 120 -14
34 -32 76 -39 92 -14 30 -47 131 -78 235 -9 30 -43 136 -76 235 -158 475 -211
704 -231 998 -15 215 -10 227 89 227 103 0 141 9 154 37 9 19 7 27 -12 47 -26
27 -93 59 -162 76 -45 11 -47 13 -53 56 -9 65 12 192 40 240 44 78 115 109
374 164 62 13 139 39 157 52 6 5 41 17 77 28 130 37 169 79 186 204 14 95 49
159 150 270 153 167 279 231 505 256 126 14 350 6 415 -15z m-6314 -825 c-110
-35 -202 -90 -289 -171 l-82 -78 -110 5 c-123 6 -213 27 -222 51 -12 31 60 66
267 127 218 64 312 83 425 84 l70 1 -59 -19z m-566 -476 c41 -9 93 -19 115
-23 l40 -8 -30 -8 c-56 -15 -75 -42 -75 -106 0 -32 4 -80 9 -106 48 -244 50
-279 14 -201 -12 25 -51 91 -87 146 -36 56 -66 104 -66 108 0 6 -49 115 -71
156 -5 10 -9 30 -9 44 0 26 2 26 43 21 23 -4 76 -14 117 -23z m312 -1236 c8
-13 20 -43 28 -68 33 -109 123 -291 214 -432 41 -62 94 -149 118 -193 83 -148
101 -180 146 -250 91 -141 127 -264 134 -455 l3 -85 -185 0 c-193 -1 -236 -5
-384 -36 -115 -24 -163 -24 -205 2 -56 34 -70 58 -120 199 -7 19 -15 94 -18
165 l-5 130 55 225 c72 292 111 471 167 758 14 66 28 77 52 40z"/>
<path d="M11710 16424 c-83 -15 -167 -48 -305 -117 -131 -65 -240 -116 -340
-156 -11 -5 -31 -13 -45 -20 -14 -6 -74 -29 -135 -52 -95 -35 -124 -41 -215
-46 -58 -3 -172 0 -255 7 -452 34 -619 40 -653 21 -19 -10 -22 -20 -22 -67 0
-42 -8 -73 -35 -131 -81 -174 -23 -237 126 -136 68 46 101 61 200 92 49 15
263 13 324 -4 l50 -13 -65 -62 c-62 -59 -202 -170 -214 -170 -3 0 -32 -16 -64
-36 -105 -66 -130 -139 -59 -169 59 -25 102 -27 168 -11 83 22 138 59 287 197
234 217 308 265 487 325 44 15 108 40 143 55 35 16 66 29 69 29 15 0 238 119
351 187 257 154 316 201 310 248 -4 38 -30 44 -108 29z"/>
<path d="M10403 16150 c-36 -16 -43 -24 -43 -48 0 -37 12 -42 104 -42 81 0
116 17 116 55 0 54 -95 72 -177 35z"/>
<path d="M15455 17351 c-101 -26 -276 -178 -327 -283 -27 -56 -16 -88 97 -263
28 -44 57 -95 64 -113 15 -35 154 -172 273 -268 90 -72 112 -93 104 -102 -4
-3 -46 -5 -94 -4 -220 5 -365 -51 -393 -151 -27 -97 -7 -178 68 -283 75 -105
83 -118 83 -152 0 -29 -43 -106 -73 -131 -15 -12 -24 -10 -66 8 -61 26 -83 26
-104 3 -21 -23 -21 -54 -1 -107 8 -22 19 -76 25 -120 12 -95 31 -138 80 -183
20 -19 52 -48 71 -66 24 -21 40 -50 53 -91 27 -87 66 -161 147 -277 177 -254
219 -298 282 -298 34 0 100 33 134 67 7 7 22 18 33 23 10 6 19 16 19 22 0 6
-31 43 -69 83 -38 40 -97 108 -130 151 -34 44 -67 86 -74 94 -53 66 -118 164
-114 173 2 7 38 20 78 30 76 19 101 30 224 97 129 70 265 112 470 144 196 31
230 39 270 58 117 58 135 116 150 498 5 130 18 226 33 257 24 48 34 135 30
268 -3 121 -6 146 -25 186 -13 25 -23 51 -23 58 0 17 -90 196 -138 276 -56 92
-149 210 -198 250 -58 48 -142 85 -206 92 -100 10 -176 -30 -162 -84 4 -13 33
-38 74 -62 89 -53 122 -81 173 -150 55 -74 77 -114 136 -243 16 -36 49 -106
73 -155 l43 -88 0 -410 c0 -443 -1 -454 -57 -539 -25 -39 -82 -81 -97 -72 -16
10 -1 66 30 116 60 96 70 140 43 195 -27 57 -67 55 -146 -7 -38 -30 -58 -30
-58 0 0 61 -148 225 -288 319 -110 73 -144 108 -140 142 8 65 137 17 233 -87
192 -208 308 -302 354 -287 115 36 -112 469 -322 611 -45 30 -125 66 -211 96
-34 11 -110 46 -170 77 -96 50 -119 67 -196 148 -89 94 -117 138 -127 197 -13
81 137 165 197 111 12 -10 29 -38 40 -62 47 -106 120 -173 175 -159 36 9 60
93 71 249 9 133 5 139 -133 181 -59 18 -243 29 -288 17z m438 -1542 c23 -12
71 -49 107 -82 36 -33 75 -64 88 -70 18 -8 22 -17 20 -41 -2 -17 -5 -30 -8
-28 -8 4 -139 -43 -210 -75 -162 -75 -189 -87 -260 -114 -41 -17 -103 -32
-137 -36 -80 -8 -80 -1 -14 110 28 45 64 117 82 159 45 109 78 145 164 173 88
30 115 30 168 4z"/>
<path d="M20019 20413 c-5 -14 -8 -71 -7 -127 l3 -101 32 -3 c29 -3 33 0 42
35 6 21 14 68 17 105 6 54 3 72 -10 93 -23 35 -63 34 -77 -2z"/>
</g>
</svg>
